<svg xmlns="http://www.w3.org/2000/svg" width="28" height="28" fill="none"><path stroke="#E6E6E6" stroke-linecap="round" stroke-linejoin="round" stroke-width="2" d="M9.58 4.473A10.46 10.46 0 0 1 14 3.5a10.47 10.47 0 0 1 7.545 3.197M9.58 4.473a51.49 51.49 0 0 1 4.667 6.686M9.581 4.473a10.508 10.508 0 0 0-6.017 8.36m10.684-1.674c3.168-1.083 5.714-2.631 7.297-4.462m-7.297 4.462c.076.128.15.257.225.387a53.786 53.786 0 0 1 1.615 3.013m-1.84-3.4c-3.08 1.054-6.747 1.668-10.684 1.674m17.98-6.136a10.465 10.465 0 0 1 2.945 7.795m-17.144 7.63a10.48 10.48 0 0 1-3.78-9.289m3.78 9.29c1.05-3.547 4.394-6.405 8.743-7.565m-8.743 7.564A10.457 10.457 0 0 0 14 24.5c1.956 0 3.787-.535 5.355-1.466m-3.267-8.475A16.812 16.812 0 0 1 20.417 14c1.42 0 2.787.173 4.072.492m-8.4.066c1.423 2.875 2.515 5.739 3.266 8.476m5.134-8.542a10.497 10.497 0 0 1-5.134 8.542"/></svg>