<svg xmlns="http://www.w3.org/2000/svg" width="113" height="45" fill="none"><g clip-path="url(#a)"><path fill="#666" d="M14.515 31.27H10.89v-9.037H8.42v-2.942h2.47v-2.094c0-2.481 1.092-4.26 4.708-4.26.764 0 1.965.153 1.965.153v2.733h-1.261c-1.285 0-1.787.39-1.787 1.47v1.998h3l-.267 2.942h-2.733v9.037zm8.319-12.215-.161.003c-3.362 0-4.9 2.529-4.9 6.118 0 4.522 1.995 6.332 4.926 6.332 1.677 0 2.779-.706 3.449-2.023v1.786h3.448v-11.98h-3.448v1.843c-.547-1.185-1.68-2.065-3.314-2.08v.001zm.876 2.831c1.412 0 2.26.985 2.26 2.66l.003 1.711c0 1.13-.7 2.45-2.263 2.45-2.402 0-2.338-2.594-2.338-3.458 0-2.906 1.28-3.363 2.338-3.363zm7.278 3.397c0-1.456-.07-6.22 6.136-6.22 2.491 0 3.532.792 3.532.792l-.837 2.594s-1.039-.572-2.392-.572c-1.734 0-2.84 1.005-2.84 2.773l.002 1.268c0 1.7 1.067 2.834 2.841 2.834 1.233 0 2.37-.577 2.37-.577l.834 2.539s-.95.797-3.493.797c-5.909 0-6.153-4.274-6.153-6.228zm29.886-6.224c3.362 0 4.925 2.528 4.925 6.118 0 4.522-1.996 6.332-4.927 6.332-1.676 0-2.916-.706-3.586-2.023v1.786l-3.404-.002V13.3l3.615-.315v7.987c.522-1.398 2.236-1.913 3.378-1.913zm-1.013 2.827c-1.412 0-2.364.985-2.364 2.66l-.004 1.711c-.002 1.13.66 2.45 2.368 2.45 2.402 0 2.339-2.594 2.339-3.458 0-2.906-1.28-3.363-2.339-3.363zM46.93 19.068c-3.814 0-5.826 2.08-5.826 5.774v.686c0 4.795 2.826 6.03 6.197 6.03 3.37 0 4.758-.917 4.758-.917l-.676-2.44s-1.744.742-3.649.742c-1.904 0-2.823-.503-3.04-2.4h7.654v-1.957c0-4.008-2.259-5.518-5.419-5.518zm.091 2.443c1.32 0 2.176.81 2.129 2.687H44.7c.077-1.976 1-2.687 2.322-2.687zm25.987-2.46c-3.916 0-5.977 2.207-5.977 6.162 0 5.425 3.553 6.299 5.983 6.299 3.558 0 5.925-1.916 5.925-6.25s-2.661-6.21-5.931-6.21zm-.05 2.845c1.723 0 2.405 1.288 2.405 2.755v1.262c0 1.776-.955 2.804-2.41 2.804-1.362 0-2.32-.961-2.32-2.804V24.65c0-1.965 1.14-2.755 2.326-2.755zm13.183-2.844c-3.915 0-5.977 2.206-5.977 6.16 0 5.426 3.553 6.3 5.984 6.3 3.557 0 5.924-1.916 5.924-6.25s-2.661-6.21-5.931-6.21zm-.05 2.844c1.723 0 2.404 1.288 2.404 2.755v1.262c0 1.776-.954 2.804-2.41 2.804-1.361 0-2.319-.961-2.319-2.804V24.65c0-1.965 1.14-2.755 2.326-2.755zm7.347 9.374V13.3l3.626-.315V25.03l3.597-5.74h3.829l-3.753 5.945 3.897 6.036h-3.839l-3.731-5.861v5.86h-3.626z"/></g><defs><clipPath id="a"><path fill="#fff" d="M8.42 12.936h96.213v18.622H8.42z"/></clipPath></defs></svg>