<svg xmlns="http://www.w3.org/2000/svg" width="28" height="28" fill="none"><g clip-path="url(#a)"><path stroke="#FCFCFC" stroke-linecap="round" stroke-linejoin="round" stroke-width="2" d="M19.833 14c-1.311 1.312-6.416 5.25-6.416 5.25M19.833 14c3.5-3.5 3.5-5.833 3.5-9.333-3.5 0-5.833 0-9.333 3.5M19.833 14l.642 3.21a5 5 0 0 1-1.367 4.515l-1.837 1.838a1 1 0 0 1-1.582-.222l-2.272-4.091M14 8.167l-5.25 6.416M14 8.167l-3.21-.642a5 5 0 0 0-4.516 1.367L4.437 10.73a1 1 0 0 0 .222 1.582l4.091 2.272m0 0 4.667 4.667m4.666-9.333-1.166 1.167M3.5 24.5l4.226-.845a2 2 0 0 0 1.607-1.961v-1.027a2 2 0 0 0-2-2H6.306a2 2 0 0 0-1.96 1.607L3.5 24.5z"/></g><defs><clipPath id="a"><path fill="#fff" d="M0 0h28v28H0z"/></clipPath></defs></svg>