<?xml version="1.0" encoding="UTF-8"?>
<svg version="1.1" xmlns="http://www.w3.org/2000/svg" width="600" height="600">
<path d="M0 0 C2.25271544 0.90002262 3.375679 1.9417799 5.02683336 3.71470088 C5.62292909 4.34569194 6.21902482 4.97668299 6.83318406 5.62679499 C7.47611909 6.32293406 8.11905412 7.01907313 8.78147203 7.73630732 C10.20621014 9.2500635 11.63136008 10.76343215 13.05686265 12.27646846 C13.81152818 13.08241954 14.56619371 13.88837062 15.34372789 14.71874446 C19.37003343 18.99831104 23.4544766 23.2218997 27.53147203 27.4531042 C32.71070833 32.82955818 37.87013544 38.22012954 42.95090562 43.6899206 C62.59940205 67.33051951 62.59940205 67.33051951 89.56467515 78.66587275 C94.81992597 78.57049336 99.79386281 78.06745735 104.88694078 76.75388545 C104.04429505 81.09209983 102.00756508 82.94163928 98.82444078 86.00388545 C97.90533921 86.8959167 96.98623765 87.78794795 96.03928453 88.70701045 C95.32901109 89.3824792 94.61873765 90.05794795 93.88694078 90.75388545 C95.26003881 93.81545666 96.83644918 95.97821224 99.16405565 98.38590449 C99.84061204 99.08977793 100.51716844 99.79365138 101.21422654 100.51885432 C101.95643953 101.28058451 102.69865251 102.04231471 103.46335679 102.82712764 C104.24588823 103.6372581 105.02841966 104.44738856 105.83466417 105.28206843 C113.05972408 112.74488105 120.33917388 120.15531882 127.63596517 127.54797953 C133.02020829 133.00423915 138.3747373 138.48645377 143.69299448 144.00706762 C147.89900467 148.36754596 152.15139876 152.68015299 156.42079812 156.97853297 C158.22198737 158.80599697 160.00851222 160.64804126 161.77939874 162.5048849 C172.01644903 173.95383046 172.01644903 173.95383046 185.80106431 179.39428538 C191.76449434 179.40815175 196.539602 177.96801198 201.30515367 174.2656042 C202.86758926 172.70052713 204.38526116 171.08971945 205.85959703 169.44138545 C206.67899263 168.59793574 207.49838823 167.75448603 208.342614 166.88547724 C210.92130775 164.21247364 213.43420716 161.48654452 215.94944078 158.75388545 C217.69865375 156.91929364 219.45187996 155.08851948 221.2092064 153.26169795 C225.48248195 148.80215254 229.70345312 144.29767968 233.88694078 139.75388545 C232.93785624 138.63417685 231.98698888 137.51597925 231.03537828 136.3984167 C230.50605699 135.77555781 229.9767357 135.15269892 229.43137437 134.51096553 C228.18798896 133.09638368 226.86131475 131.75524958 225.51194078 130.44138545 C223.88694078 128.75388545 223.88694078 128.75388545 223.88694078 126.75388545 C224.47519639 126.85484019 225.06345201 126.95579493 225.66953355 127.05980891 C234.58867749 128.31349328 243.39599699 128.56872271 251.2458275 123.6485998 C259.20101992 117.5236659 265.96194696 109.89448581 272.71299058 102.50712031 C275.52637178 99.4554439 278.40875413 96.47040635 281.28537828 93.47849482 C286.88744537 87.63211919 292.41063921 81.71822145 297.88694078 75.75388545 C301.46185036 77.27509143 303.76886957 79.37758196 306.51274949 82.1055395 C307.4368361 83.01965098 308.36092271 83.93376246 309.31301194 84.87557429 C310.32971038 85.89137699 311.3462928 86.90729581 312.36277086 87.92331904 C313.43847031 88.99139592 314.51457094 90.05906888 315.59104234 91.12636775 C318.5109329 94.02432489 321.42423455 96.92881838 324.33571917 99.83521813 C326.15387948 101.6497356 327.97333122 103.46294785 329.79322702 105.27572459 C336.13869948 111.59671324 342.47844042 117.92339247 348.81345445 124.25486201 C354.72522362 130.16298968 360.65001379 136.05783767 366.58083308 141.94683605 C371.66910785 147.00048019 376.74778021 152.06364064 381.8191185 157.13428003 C384.84972305 160.16408973 387.88421551 163.18974762 390.92857629 166.20574015 C393.78858671 169.03969153 396.63652257 171.88523232 399.47546464 174.74028414 C400.52128654 175.78792986 401.57142559 176.83128558 402.62605935 177.87006015 C404.06086128 179.28458568 405.47897296 180.71598238 406.89605027 182.14826411 C407.69558028 182.94578278 408.49511028 183.74330146 409.31886846 184.56498736 C410.88694078 186.75388545 410.88694078 186.75388545 410.90488893 188.75067157 C409.5244712 191.46718709 407.75123477 193.25772898 405.59066087 195.41092891 C404.20026345 196.80751231 404.20026345 196.80751231 402.7817772 198.23230952 C401.74657593 199.25689363 400.71123175 200.28133338 399.67575914 201.30564326 C398.59123729 202.38931892 397.50737555 203.47365555 396.42412645 204.55860347 C393.48054679 207.50304483 390.52780053 210.43813673 387.57334667 213.37166137 C384.48767668 216.43859394 381.41048461 219.51400851 378.33239061 222.58854121 C372.50186246 228.40974028 366.66372825 234.22324897 360.82283628 240.03404707 C354.17374558 246.64962067 347.53315835 253.27370174 340.89327878 259.89851826 C327.23395305 273.52647542 313.56396219 287.14368894 299.88694078 300.75388545 C295.8340714 297.37336532 291.99275675 293.97506101 288.44992906 290.04953974 C284.47583834 285.69011132 280.45827353 281.37983433 276.39666253 277.10224646 C273.95984827 274.52961602 271.54955353 271.93990762 269.18723375 269.29856318 C256.36047199 254.70212634 256.36047199 254.70212634 238.36518174 248.92034358 C233.4940892 248.88914562 228.7173262 249.12159622 223.88694078 249.75388545 C225.49229365 246.34329142 227.29212978 244.1359606 230.01194078 241.50388545 C230.7363939 240.7974792 231.46084703 240.09107295 232.20725328 239.36326045 C232.76155015 238.8321667 233.31584703 238.30107295 233.88694078 237.75388545 C232.52382731 234.74734667 230.9625113 232.51418935 228.7326439 230.08689326 C227.76892869 229.03625697 227.76892869 229.03625697 226.78574449 227.9643957 C223.80441497 224.78619566 220.79799475 221.63345675 217.77121812 218.49851435 C216.19169868 216.84588998 214.63039078 215.17565045 213.08860093 213.48777217 C210.84590564 211.03625264 208.54761766 208.65075127 206.23069078 206.26951045 C205.23108323 205.13995936 205.23108323 205.13995936 204.2112816 203.98758906 C199.01688317 198.8313914 193.41252961 197.13658426 186.23243219 197.11501139 C174.24217412 198.27782304 166.31373098 209.15165682 158.53537828 217.34763545 C156.65923327 219.25739753 154.77983038 221.16328644 152.89539415 223.06479853 C148.47075367 227.54507154 144.09394588 232.06913149 139.73307747 236.61140603 C134.760593 241.78609187 129.7360075 246.90888482 124.70671803 252.0282833 C114.37517358 262.54725447 104.1094761 273.12891791 93.88694078 283.75388545 C96.03594959 288.37407237 99.29530145 291.17842469 102.98850328 294.6327917 C104.88694078 296.75388545 104.88694078 296.75388545 104.88694078 299.75388545 C104.2455919 299.58452479 103.60424302 299.41516413 102.94345933 299.24067134 C93.32186449 297.144792 83.1703229 296.78632651 74.59818345 302.19909114 C61.69722904 311.814549 50.8659274 324.36111392 39.96677476 336.11155146 C34.81170703 341.64128485 29.56813836 347.08694627 24.32797319 352.53591174 C20.25971804 356.76667914 16.21000727 361.01060882 12.20932847 365.30542964 C11.47530809 366.08433558 10.7412877 366.86324153 9.98502427 367.66575068 C8.61186991 369.12292388 7.24846671 370.58936959 5.89664537 372.06635493 C5.29213548 372.70301081 4.68762559 373.3396667 4.06479722 373.99561518 C3.54440118 374.55568829 3.02400514 375.1157614 2.48783952 375.69280642 C0.88694078 376.75388545 0.88694078 376.75388545 -1.00062692 376.50874698 C-3.46609889 375.62772942 -4.66329713 374.58160543 -6.51287478 372.73717993 C-7.16936725 372.0897441 -7.82585972 371.44230827 -8.5022459 370.77525318 C-9.21499304 370.05717811 -9.92774018 369.33910305 -10.66208571 368.59926814 C-11.42574972 367.84169524 -12.18941372 367.08412234 -12.97621906 366.30359268 C-15.54377592 363.75273974 -18.10042722 361.191228 -20.65724868 358.62961787 C-22.49134193 356.80286049 -24.32605849 354.97672874 -26.16135329 353.15117854 C-30.63348979 348.70011173 -35.09732115 344.24080473 -39.5580428 339.77830114 C-43.18217844 336.15285897 -46.80885591 332.52997893 -50.43735999 328.90890902 C-51.48164515 327.86672299 -52.52592955 326.82453619 -53.5702132 325.78234863 C-54.08993637 325.26366899 -54.60965955 324.74498934 -55.14513191 324.21059213 C-64.97673586 314.3978958 -74.79833862 304.57523561 -84.61708166 294.74967305 C-93.60808724 285.75308809 -102.61223401 276.76978658 -111.62255994 267.79255524 C-120.86774629 258.58106397 -130.10365883 249.36036715 -139.3296994 240.12969875 C-144.51225579 234.94489389 -149.69852183 229.76393027 -154.89460868 224.59268206 C-159.77757214 219.7328618 -164.64748209 214.86029006 -169.50867194 209.97869128 C-171.29949419 208.18443965 -173.09463612 206.39448808 -174.89427108 204.60907573 C-177.34083834 202.18052167 -179.77166485 199.73725603 -182.19895095 197.28945369 C-182.92285169 196.57807079 -183.64675244 195.86668789 -184.39258957 195.13374794 C-185.0360433 194.47848886 -185.67949704 193.82322979 -186.34244937 193.14811438 C-187.18730229 192.30367004 -187.18730229 192.30367004 -188.04922295 191.44216621 C-189.11305922 189.75388545 -189.11305922 189.75388545 -188.97476643 187.75423461 C-187.98136414 185.44817122 -186.86872738 184.13139445 -185.09635371 182.35406989 C-184.44891788 181.69757742 -183.80148205 181.04108495 -183.13442695 180.36469877 C-182.41635189 179.65195163 -181.69827683 178.93920449 -180.95844191 178.20485896 C-180.20086901 177.44119495 -179.44329611 176.67753095 -178.66276646 175.89072561 C-176.11191351 173.32316875 -173.55040177 170.76651745 -170.98879164 168.20969599 C-169.16203427 166.37560274 -167.33590252 164.54088619 -165.51035231 162.70559138 C-161.05928551 158.23345488 -156.5999785 153.76962352 -152.13747492 149.30890187 C-148.51203275 145.68476623 -144.88915271 142.05808876 -141.2680828 138.42958468 C-140.22589676 137.38529952 -139.18370996 136.34101512 -138.14152241 135.29673147 C-137.62284276 134.7770083 -137.10416311 134.25728512 -136.5697659 133.72181276 C-126.75706957 123.89020881 -116.93440939 114.06860605 -107.10884682 104.24986301 C-98.11226186 95.25885743 -89.12896036 86.25471066 -80.15172901 77.24438473 C-70.94023775 67.99919838 -61.71954092 58.76328584 -52.48887253 49.53724527 C-47.30406766 44.35468888 -42.12310404 39.16842284 -36.95185584 33.97233599 C-32.09203557 29.08937253 -27.21946383 24.21946258 -22.33786505 19.35827273 C-20.54361342 17.56745048 -18.75366185 15.77230855 -16.9682495 13.97267359 C-14.53969544 11.52610633 -12.09642981 9.09527982 -9.64862746 6.66799372 C-8.93724456 5.94409298 -8.22586167 5.22019223 -7.49292171 4.4743551 C-6.83766264 3.83090137 -6.18240357 3.18744763 -5.50728816 2.5244953 C-4.66284381 1.67964238 -4.66284381 1.67964238 -3.80133998 0.81772172 C-2.11305922 -0.24611455 -2.11305922 -0.24611455 0 0 Z " fill="#344959" transform="translate(189.1130592226982,105.24611455202103)"/>
<path d="M0 0 C2.2643089 0.902317 3.49982038 1.9897918 5.22013718 3.71470088 C5.85669739 4.34569194 6.4932576 4.97668299 7.14910752 5.62679499 C8.17949394 6.6710036 8.17949394 6.6710036 9.23069626 7.73630732 C9.96279816 8.46636485 10.69490006 9.19642237 11.44918686 9.94860286 C13.86968059 12.36608581 16.2792556 14.7941477 18.68870407 17.22263545 C20.36392297 18.90091097 22.03973239 20.57859724 23.71610886 22.2557165 C27.22767605 25.77188834 30.73427091 29.29291802 34.23704392 32.81785029 C38.73872852 37.34786083 43.24908621 41.8691082 47.76272064 46.38720912 C51.22203561 49.85066978 54.6785094 53.31695321 58.13393265 56.78429621 C59.79693897 58.45301954 61.46042773 60.12126223 63.12439591 61.78902644 C65.4424251 64.11388975 67.75702595 66.44210825 70.07054001 68.77146357 C70.76556122 69.46760264 71.46058243 70.16374171 72.17666489 70.8809759 C72.8019458 71.51196696 73.42722672 72.14295802 74.07145554 72.79307002 C74.61933605 73.3439252 75.16721657 73.89478038 75.73169953 74.46232814 C76.89182907 75.75388545 76.89182907 75.75388545 76.89182907 76.75388545 C56.43182907 76.75388545 35.97182907 76.75388545 14.89182907 76.75388545 C13.90182907 78.73388545 13.90182907 78.73388545 12.89182907 80.75388545 C11.50844904 82.31484317 10.06575819 83.82392338 8.58918625 85.2970373 C7.68612244 86.20285044 6.78305863 87.10866359 5.85262924 88.04192561 C4.84934944 89.03812767 3.84597404 90.03423346 2.84251267 91.03025264 C1.78761428 92.08458677 0.7331563 93.13936172 -0.3208937 94.19454402 C-3.18192528 97.05614955 -6.04908263 99.91154552 -8.91737169 102.76587409 C-11.91450635 105.75050864 -14.90598051 108.74080561 -17.8980574 111.73050898 C-23.56408837 117.39032307 -29.23519843 123.04501947 -34.90814668 128.69789928 C-41.36666739 135.13406748 -47.81951191 141.5759137 -54.27188367 148.0182454 C-67.54433585 161.26979087 -80.82390673 174.51418171 -94.10817093 187.75388545 C-89.06914398 193.84669253 -83.57934646 199.40507236 -77.97194046 204.97190303 C-76.95605799 205.98422313 -75.94041413 206.99678272 -74.92498916 208.00956172 C-72.75091643 210.17712058 -70.57534414 212.34315871 -68.39861053 214.50804538 C-64.95882497 217.92945422 -61.5234624 221.35528111 -58.0888533 224.78188533 C-48.32625856 234.52038623 -38.5576792 244.25287138 -28.78492874 253.98118037 C-23.37780657 259.36379139 -17.97425529 264.74996148 -12.5745433 270.14000642 C-9.15820576 273.54979089 -5.73740518 276.95501444 -2.31326741 280.35696489 C-0.19160109 282.46694112 1.92591055 284.58104789 4.04224068 286.69637507 C5.02737367 287.6793525 6.01423823 288.66059791 7.00291115 289.64001483 C8.34715127 290.97214945 9.68474112 292.31098502 11.02192551 293.65020198 C11.77369002 294.39882408 12.52545452 295.14744618 13.29999977 295.9187538 C14.89182907 297.75388545 14.89182907 297.75388545 14.89182907 299.75388545 C35.35182907 299.75388545 55.81182907 299.75388545 76.89182907 299.75388545 C70.140446 307.63049903 70.140446 307.63049903 67.53974777 310.25986689 C66.94828964 310.85992549 66.35683151 311.45998408 65.74745041 312.07822627 C65.12075455 312.70918208 64.49405869 313.34013789 63.84837204 313.99021357 C63.17117111 314.67559199 62.49397019 315.36097041 61.79624802 316.06711787 C59.57850867 318.30945723 57.35683017 320.54782654 55.13401657 322.78513545 C54.37223225 323.55224345 53.61044792 324.31935145 52.82557923 325.10970515 C48.80416564 329.15772029 44.77917318 333.20214166 40.75169235 337.24411982 C37.41783539 340.59138942 34.09142493 343.94580541 30.7712236 347.30661982 C26.75529758 351.37165387 22.72743095 355.42447249 18.69044739 359.46859187 C17.15435948 361.0114149 15.62254736 362.55850704 14.09507233 364.10985774 C11.9670306 366.26929248 9.82400078 368.41265753 7.67649704 370.55271357 C7.04575272 371.19986323 6.41500839 371.84701289 5.76515061 372.51377314 C3.98994309 374.26377314 3.98994309 374.26377314 0.89182907 376.75388545 C-2.47899974 376.48875796 -4.16779476 375.07085286 -6.50798649 372.73717993 C-7.16447896 372.0897441 -7.82097143 371.44230827 -8.49735761 370.77525318 C-9.21010474 370.05717811 -9.92285188 369.33910305 -10.65719742 368.59926814 C-11.42086142 367.84169524 -12.18452542 367.08412234 -12.97133076 366.30359268 C-15.53888762 363.75273974 -18.09553892 361.191228 -20.65236038 358.62961787 C-22.48645363 356.80286049 -24.32117019 354.97672874 -26.15646499 353.15117854 C-30.6286015 348.70011173 -35.09243285 344.24080473 -39.55315451 339.77830114 C-43.17729015 336.15285897 -46.80396761 332.52997893 -50.43247169 328.90890902 C-51.47675686 327.86672299 -52.52104126 326.82453619 -53.5653249 325.78234863 C-54.08504808 325.26366899 -54.60477125 324.74498934 -55.14024361 324.21059213 C-64.97184756 314.3978958 -74.79345032 304.57523561 -84.61219337 294.74967305 C-93.60319894 285.75308809 -102.60734572 276.76978658 -111.61767165 267.79255524 C-120.86285799 258.58106397 -130.09877053 249.36036715 -139.3248111 240.12969875 C-144.50736749 234.94489389 -149.69363354 229.76393027 -154.88972038 224.59268206 C-159.77268384 219.7328618 -164.64259379 214.86029006 -169.50378364 209.97869128 C-171.29460589 208.18443965 -173.08974782 206.39448808 -174.88938278 204.60907573 C-177.33595005 202.18052167 -179.76677656 199.73725603 -182.19406265 197.28945369 C-182.9179634 196.57807079 -183.64186414 195.86668789 -184.38770127 195.13374794 C-185.03115501 194.47848886 -185.67460874 193.82322979 -186.33756107 193.14811438 C-187.18241399 192.30367004 -187.18241399 192.30367004 -188.04433465 191.44216621 C-189.10817093 189.75388545 -189.10817093 189.75388545 -188.96987814 187.75423461 C-187.97647584 185.44817122 -186.86383908 184.13139445 -185.09146541 182.35406989 C-184.44402958 181.69757742 -183.79659375 181.04108495 -183.12953866 180.36469877 C-182.41146359 179.65195163 -181.69338853 178.93920449 -180.95355362 178.20485896 C-180.19598072 177.44119495 -179.43840782 176.67753095 -178.65787816 175.89072561 C-176.10702522 173.32316875 -173.54551347 170.76651745 -170.98390335 168.20969599 C-169.15714597 166.37560274 -167.33101422 164.54088619 -165.50546402 162.70559138 C-161.05439721 158.23345488 -156.59509021 153.76962352 -152.13258662 149.30890187 C-148.50714445 145.68476623 -144.88426441 142.05808876 -141.2631945 138.42958468 C-140.22100847 137.38529952 -139.17882167 136.34101512 -138.13663411 135.29673147 C-137.61795446 134.7770083 -137.09927482 134.25728512 -136.56487761 133.72181276 C-126.75218127 123.89020881 -116.92952109 114.06860605 -107.10395852 104.24986301 C-98.10737357 95.25885743 -89.12407206 86.25471066 -80.14684071 77.24438473 C-70.93534945 67.99919838 -61.71465262 58.76328584 -52.48398423 49.53724527 C-47.29917937 44.35468888 -42.11821575 39.16842284 -36.94696754 33.97233599 C-32.08714728 29.08937253 -27.21457554 24.21946258 -22.33297676 19.35827273 C-20.53872512 17.56745048 -18.74877356 15.77230855 -16.9633612 13.97267359 C-14.53480715 11.52610633 -12.09154151 9.09527982 -9.64373916 6.66799372 C-8.93235627 5.94409298 -8.22097337 5.22019223 -7.48803341 4.4743551 C-6.83277434 3.83090137 -6.17751527 3.18744763 -5.50239986 2.5244953 C-4.65795552 1.67964238 -4.65795552 1.67964238 -3.79645169 0.81772172 C-2.10817093 -0.24611455 -2.10817093 -0.24611455 0 0 Z " fill="#85C2C3" transform="translate(189.1081709265709,105.24611455202103)"/>
<path d="M0 0 C3.57490958 1.52120598 5.8819288 3.62369651 8.62580872 6.35165405 C10.01193863 7.72282127 10.01193863 7.72282127 11.42607117 9.12168884 C12.4427696 10.13749154 13.45935203 11.15341036 14.47583008 12.16943359 C15.55152953 13.23751047 16.62763017 14.30518344 17.70410156 15.3724823 C20.62399212 18.27043944 23.53729377 21.17493293 26.44877839 24.08133268 C28.26693871 25.89585015 30.08639045 27.70906241 31.90628624 29.52183914 C38.25175871 35.84282779 44.59149965 42.16950702 50.92651367 48.50097656 C56.83828284 54.40910423 62.76307301 60.30395222 68.6938923 66.19295061 C73.78216708 71.24659474 78.86083943 76.30975519 83.93217772 81.38039458 C86.96278227 84.41020429 89.99727473 87.43586217 93.04163551 90.45185471 C95.90164594 93.28580608 98.7495818 96.13134687 101.58852386 98.9863987 C102.63434576 100.03404441 103.68448481 101.07740013 104.73911858 102.1161747 C106.17392051 103.53070023 107.59203219 104.96209693 109.0091095 106.39437866 C109.8086395 107.19189734 110.6081695 107.98941601 111.43192768 108.81110191 C113 111 113 111 113.01794815 112.99678612 C111.63753042 115.71330164 109.86429399 117.50384353 107.70372009 119.65704346 C106.77678848 120.58809906 105.84985687 121.51915466 104.89483643 122.47842407 C103.85963515 123.50300818 102.82429098 124.52744793 101.78881836 125.55175781 C100.70429651 126.63543348 99.62043477 127.71977011 98.53718567 128.80471802 C95.59360601 131.74915939 92.64085975 134.68425129 89.6864059 137.61777592 C86.6007359 140.68470849 83.52354383 143.76012306 80.44544983 146.83465576 C74.61492168 152.65585483 68.77678747 158.46936352 62.9358955 164.28016162 C56.2868048 170.89573522 49.64621757 177.51981629 43.006338 184.14463282 C29.34701227 197.77258997 15.67702142 211.38980349 2 225 C-2.08376383 221.55881114 -6.05291073 218.07255748 -9.83374023 214.2956543 C-10.7141246 213.41842209 -11.59450897 212.54118988 -12.50157166 211.63737488 C-13.42788895 210.70903336 -14.35420624 209.78069183 -15.30859375 208.82421875 C-16.28493423 207.84855308 -17.26142301 206.8730358 -18.23805237 205.8976593 C-20.26929612 203.86787998 -22.29874449 201.83632746 -24.3269043 199.8034668 C-26.93181915 197.19280951 -29.54125989 194.58672907 -32.15202236 191.9819212 C-34.1620257 189.97551864 -36.16965716 187.96675646 -38.17656136 185.95725441 C-39.13873896 184.99440855 -40.10166318 184.03230822 -41.06533623 183.07095909 C-42.40330973 181.73550903 -43.73776137 180.3965332 -45.07202148 179.05737305 C-45.83256332 178.29603561 -46.59310516 177.53469818 -47.37669373 176.75028992 C-49 175 -49 175 -49 174 C-48.40567169 174.12321121 -47.81134338 174.24642242 -47.19900513 174.37336731 C-37.83986855 175.96770231 -28.22556554 176.18631356 -20.21032715 170.55413818 C-10.9038254 163.29717695 -2.89579602 154.42687647 5.12506104 145.81433105 C7.81201621 142.956894 10.5538378 140.15554705 13.29950142 137.35464764 C16.57606608 134.00918538 19.8261101 130.63853734 23.0703125 127.26171875 C23.68839909 126.62059332 24.30648567 125.97946789 24.94330215 125.31891441 C26.67511922 123.51066856 28.38755889 121.68619966 30.09423828 119.85424805 C30.61025101 119.31850662 31.12626373 118.7827652 31.65791321 118.23078918 C34.22796371 115.50783884 34.22796371 115.50783884 35.12068176 111.9942627 C33.46325812 109.04486328 31.28440636 106.6792563 28.97485352 104.23754883 C28.45076401 103.67286392 27.9266745 103.10817902 27.38670349 102.52638245 C22.51447924 97.30295495 17.55662899 92.15860857 12.57820225 87.03650379 C9.24205922 83.60403537 5.93458897 80.15232474 2.68676758 76.63598633 C-13.34761574 58.00577144 -13.34761574 58.00577144 -35.38795471 49.68058777 C-40.3449099 49.706808 -45.13056585 50.06429317 -50 51 C-44.93499762 44.8758184 -39.4217079 39.29284139 -33.7890625 33.69140625 C-32.81092733 32.71514014 -31.83301565 31.73865006 -30.85531616 30.76194763 C-28.30285601 28.21327423 -25.74740552 25.66762042 -23.19128418 23.12261963 C-20.57490086 20.51653382 -17.96140697 17.90755379 -15.34765625 15.29882812 C-10.23456754 10.19640882 -5.11831088 5.09718143 0 0 Z " fill="#85C3C4" transform="translate(487,181)"/>
<path d="M0 0 C57.75 0 115.5 0 175 0 C173.28101284 3.43797431 172.18459779 5.06371444 169.57052612 7.66998291 C168.86098785 8.38227051 168.15144958 9.09455811 167.42041016 9.82843018 C166.64213867 10.59951111 165.86386719 11.37059204 165.06201172 12.16503906 C164.24241974 12.9849231 163.42282776 13.80480713 162.57839966 14.64953613 C159.86687568 17.35966624 157.14833508 20.06264248 154.4296875 22.765625 C152.5488083 24.64277429 150.66832513 26.520312 148.7883606 28.39837646 C144.34417974 32.83634406 139.89492578 37.26918925 135.44382393 41.70021415 C130.37584024 46.74583409 125.31354229 51.79714216 120.25171256 56.84893465 C109.84078771 67.23896097 99.42274494 77.62183072 89 88 C85.85084442 86.60426604 83.72098849 84.97035012 81.29205322 82.53929138 C80.57135147 81.82278412 79.85064972 81.10627686 79.10810852 80.36805725 C78.32767685 79.58200607 77.54724518 78.7959549 76.74316406 77.98608398 C75.91352646 77.15834473 75.08388885 76.33060547 74.22911072 75.4777832 C71.48637076 72.7387501 68.75090055 69.9925795 66.015625 67.24609375 C64.11648831 65.34475917 62.21600232 63.44477524 60.31561279 61.54469299 C56.33443119 57.56257554 52.3571386 53.57660725 48.38232422 49.58813477 C43.78108841 44.97114733 39.1746204 40.35943381 34.56513619 35.75068229 C30.1342234 31.32037878 25.70616932 26.88723018 21.27971649 22.45247078 C19.39372813 20.5629441 17.50688586 18.67427613 15.6193924 16.78625298 C12.99014799 14.15485368 10.36421539 11.52019619 7.73925781 8.88452148 C6.95072922 8.09644608 6.16220062 7.30837067 5.34977722 6.49641418 C4.64035477 5.78272675 3.93093231 5.06903931 3.20001221 4.33372498 C2.57838825 3.71042518 1.9567643 3.08712538 1.31630325 2.44493771 C0 1 0 1 0 0 Z " fill="#85C2C3" transform="translate(193,302)"/>
<path d="M0 0 C3.1272443 1.38909882 5.25437051 3.00336136 7.66998291 5.41601562 C8.38227051 6.12266357 9.09455811 6.82931152 9.82843018 7.55737305 C10.59951111 8.33250244 11.37059204 9.10763184 12.16503906 9.90625 C13.39486511 11.13081909 13.39486511 11.13081909 14.64953613 12.38012695 C17.35995515 15.0817383 20.06298745 17.79060584 22.765625 20.5 C24.64291659 22.37594493 26.5205015 24.25159256 28.39837646 26.12695312 C32.33266647 30.05760675 36.26272513 33.99245414 40.19042969 37.9296875 C44.7355844 42.48574126 49.28791984 47.0345248 53.84402299 51.57962799 C57.75433526 55.48087606 61.66075126 59.3859934 65.56391311 63.29439545 C67.89581191 65.6294168 70.22943807 67.9626593 72.56580353 70.29321289 C75.16623929 72.88859726 77.76022381 75.49025821 80.35253906 78.09375 C81.13171692 78.86887939 81.91089478 79.64400879 82.71368408 80.44262695 C83.41469238 81.1492749 84.11570068 81.85592285 84.83795166 82.58398438 C85.45220127 83.19898804 86.06645088 83.8139917 86.69931412 84.44763184 C88 86 88 86 88 88 C30.25 88 -27.5 88 -87 88 C-80.25 80.125 -80.25 80.125 -77.20339966 77.08314514 C-76.51360519 76.39197601 -75.82381073 75.70080688 -75.1131134 74.98869324 C-74.37727524 74.25645035 -73.64143707 73.52420746 -72.88330078 72.76977539 C-71.69692772 71.58318329 -71.69692772 71.58318329 -70.48658752 70.37261963 C-67.89186111 67.77858558 -65.2936189 65.18810398 -62.6953125 62.59765625 C-60.88762933 60.79183966 -59.08016794 58.98580104 -57.2729187 57.17955017 C-53.01442329 52.92447273 -48.75371057 48.67162814 -44.49189556 44.41987652 C-39.63617012 39.57536591 -34.78331665 34.72798268 -29.930691 29.8803674 C-19.95696499 19.91706678 -9.9796745 9.9573421 0 0 Z " fill="#85C2C3" transform="translate(280,197)"/>
<path d="M0 0 C2.50504262 1.14412146 4.01216392 2.5512252 5.95584106 4.50553894 C6.71632751 5.26302429 7.47681396 6.02050964 8.26034546 6.8009491 C9.07090393 7.62385437 9.8814624 8.44675964 10.71658325 9.29460144 C11.97326813 10.55409607 11.97326813 10.55409607 13.25534058 11.83903503 C15.02393175 13.61434838 16.78892148 15.39325571 18.55056763 17.17546082 C21.25960889 19.91570774 23.97922374 22.64509221 26.70095825 25.37272644 C28.41512627 27.09606198 30.12868908 28.81999977 31.84158325 30.54460144 C32.66023865 31.36750671 33.47889404 32.19041199 34.32235718 33.03825378 C35.44417389 34.17448181 35.44417389 34.17448181 36.58865356 35.33366394 C37.25165466 36.00349304 37.91465576 36.67332214 38.5977478 37.3634491 C40.01345825 38.91960144 40.01345825 38.91960144 40.01345825 39.91960144 C13.61345825 39.91960144 -12.78654175 39.91960144 -39.98654175 39.91960144 C-38.26955696 36.48563187 -37.11319958 34.78417754 -34.51828003 32.14494324 C-33.81059479 31.4212706 -33.10290955 30.69759796 -32.3737793 29.95199585 C-31.60919403 29.18204788 -30.84460876 28.41209991 -30.05685425 27.61882019 C-29.27011322 26.82305069 -28.48337219 26.02728119 -27.67279053 25.20739746 C-26.00944691 23.52955854 -24.34328754 21.85450704 -22.67453003 20.18205261 C-20.11593068 17.61151086 -17.57657164 15.02291363 -15.037323 12.43327332 C-13.41998495 10.80647662 -11.80153273 9.1807867 -10.18185425 7.55632019 C-9.04104904 6.38621651 -9.04104904 6.38621651 -7.87719727 5.19247437 C-7.1632077 4.48456253 -6.44921814 3.7766507 -5.71359253 3.04728699 C-5.08897125 2.41759506 -4.46434998 1.78790314 -3.82080078 1.13912964 C-1.98654175 -0.08039856 -1.98654175 -0.08039856 0 0 Z " fill="#84C2C3" transform="translate(424.9865417480469,245.0803985595703)"/>
<path d="M0 0 C26.4 0 52.8 0 80 0 C73.25 7.875 73.25 7.875 70.28955078 10.82397461 C69.62931915 11.48413071 68.96908752 12.1442868 68.28884888 12.82444763 C67.25254837 13.85300621 67.25254837 13.85300621 66.1953125 14.90234375 C65.1093428 15.98619102 65.1093428 15.98619102 64.00143433 17.0919342 C61.71164735 19.37616922 59.41839007 21.65688312 57.125 23.9375 C55.56226839 25.49521039 53.9997661 27.05315087 52.4375 28.61132812 C48.6276469 32.41021602 44.81494621 36.20622713 41 40 C37.7797803 38.58234925 35.62827427 36.87664194 33.14941406 34.39233398 C32.40894836 33.65494492 31.66848267 32.91755585 30.90557861 32.15782166 C30.11689392 31.36195145 29.32820923 30.56608124 28.515625 29.74609375 C27.29223419 28.52201561 27.29223419 28.52201561 26.04412842 27.27320862 C24.3237585 25.54982011 22.6058172 23.8240043 20.89013672 22.09594727 C18.25151663 19.43902715 15.60493838 16.79023958 12.95703125 14.14257812 C11.28858882 12.46922215 9.62060402 10.79540975 7.953125 9.12109375 C7.15634338 8.32319931 6.35956177 7.52530487 5.53863525 6.70323181 C4.8107782 5.9689949 4.08292114 5.234758 3.33300781 4.47827148 C2.68777161 3.82922348 2.0425354 3.18017548 1.37774658 2.51145935 C0 1 0 1 0 0 Z " fill="#84C1C2" transform="translate(385,302)"/>
</svg>
