<svg xmlns="http://www.w3.org/2000/svg" width="20" height="21" fill="none"><path stroke="#666" stroke-linecap="round" stroke-linejoin="round" stroke-width="1.5" d="M6.147 4.55C7.213 3.515 8.497 3 10 3c1.503 0 2.781.51 3.835 1.532 1.055 1.02 1.582 2.26 1.582 3.714 0 .728-.188 1.562-.564 2.5-.376.94-.83 1.82-1.363 2.641-.533.822-1.06 1.59-1.581 2.307a27.7 27.7 0 0 1-1.327 1.707L10 18c-.145-.164-.34-.381-.582-.651-.242-.27-.678-.81-1.308-1.62a27.115 27.115 0 0 1-1.654-2.36 16.91 16.91 0 0 1-1.291-2.587c-.388-.963-.582-1.808-.582-2.536 0-1.455.521-2.687 1.564-3.697z" clip-rule="evenodd"/><path stroke="#666" stroke-linecap="round" stroke-linejoin="round" stroke-width="1.5" d="M10.833 8.417a.833.833 0 1 1-1.666 0 .833.833 0 0 1 1.666 0z"/></svg>