<svg xmlns="http://www.w3.org/2000/svg" fill="none" viewBox="0 0 96 96" id="Pm2-Icon--Streamline-Svg-Logos" height="24" width="24">
  <desc>
    Pm2 Icon Streamline Icon: https://streamlinehq.com
  </desc>
  <path fill="url(#a)" d="m65.3613 9.47461-3.4351 5.88909c-.3921.6723-1.0988 1.047-1.8255 1.047-.3609 0-.7272-.0923-1.0618-.2876-1.0069-.5874-1.3468-1.8803-.7594-2.8873l2.1938-3.76119h-6.1682c.0005.35992-.0818.72409-.275 1.05759l-9.4898 16.3906c-2.3272 4.036-7.3208 6.3756-11.2034 6.3756l-3.0383 0c-1.1657 0-2.1109-.9451-2.1109-2.1109s.9452-2.111 2.1109-2.111h3.0383c2.7519 0 5.9054-1.9558 7.4717-4.129 1.0442-1.4488 4.0291-6.6065 8.9547-15.47289h-5.6067C35.299 28.5488 30.0216 24.8546 14.1893 24.8546c-1.0481 1.5874-2.102 3.1807-3.1326 4.7497h11.0488c1.1657 0 2.1109.9451 2.1109 2.1109s-.9452 2.111-2.1109 2.111H8.30449c-.94201 1.4618-1.83759 2.8725-2.65823 4.2013l34.68264-.2438-1.5521.0011c2.1004.0427 5.498-1.1869 7.143-3.7729l8.1773-12.9249c.6233-.9853 1.9268-1.2787 2.9126-.6549.9848.6233 1.2782 1.9268.655 2.9126l-8.18 12.9297c-2.4661 3.8747-7.134 5.7935-10.7696 5.7318l-35.57561.2607c-1.64919 2.9664-2.13911 4.9044-2.11836 5.8083H48.1796l24.0613-36.9419c-1.5188-.8755-3.6942-1.58322-6.478-1.65869h-.4016Z"></path>
  <path fill="url(#b)" d="M48.1794 48.0752H1.02044c-.151466 2.2366.54602 4.5597 1.85851 6.601l1.17389 0H34.4526c4.9127-.5396 9.2716 1.5035 13.0765 6.1292l7.9178 12.8003c.6217.9864.3251 2.2899-.6612 2.9111-.3494.22-.7383.3251-1.1225.3251-.7019 0-1.3875-.3494-1.7885-.9869-4.8819-7.9131-7.8546-12.3891-8.9181-13.4281-1.5954-1.5584-3.6388-3.5166-8.504-3.5166H5.53051l2.81709 4.4736h11.2741c1.1658 0 2.111.9452 2.111 2.111 0 1.1658-.9452 2.111-2.111 2.111h-8.6159l2.6556 4.2177c18.9987 0 21.6374 2.1109 28.1603 14.7014h5.5344c-4.7264-8.4403-7.7129-13.4191-8.9596-14.9365-1.8701-2.276-4.3902-3.9826-7.6529-3.9826h-2.9287c-1.1658 0-2.1109-.9452-2.1109-2.111 0-1.1658.9451-2.111 2.1109-2.111h2.9287c4.4763 0 9.4991 2.8757 11.3124 6.3757l10.0176 16.3906c.0702.1213.1256.2469.1694.3748h7.5473l-2.4113-4.1339c-.5879-1.007-.2475-2.2994.7594-2.8873.3346-.1948.7009-.2876 1.0618-.2876.7262 0 1.4334.3747 1.8255 1.0475l3.6525 6.2613h1.8569c1.4708.0046 2.5484-.1519 4.6501-1.5079L48.1794 48.0752Z"></path>
  <path fill="url(#c)" d="m72.241 11.1333-2.9322 4.4621 3.633 5.4494c.6465.97.3847 2.2809-.5858 2.9274-.3594.2401-.7663.3546-1.1684.3546-.6824 0-1.3521-.3298-1.7585-.9399l-2.6392-3.9586-2.9142 4.4341 10.4108 17.0392c2.4339 3.9824 2.4223 8.9231-.0296 12.8948-.0316.0502-.0649.0998-.1002.1478l-1.2751 1.721c-.4142.5583-1.0523.8539-1.6977.8539-.437 0-.8777-.1351-1.2555-.4148-.9368-.6945-1.1331-2.0165-.4391-2.9533l1.2191-1.6444c1.5679-2.5981 1.5605-5.8099-.0243-8.4038L61.312 27.764 47.9648 48.0752 58.4611 32.253l5.1835 8.0079c2.6598 4.1096 2.6492 9.4007-.0269 13.5002l-6.1535 9.4265-9.4994-15.1124L60.1763 67.503l5.6262-7.5014c.6998-.932 2.0223-1.1209 2.9554-.4216.9325.6992 1.1214 2.0228.4221 2.9553l-6.5972 8.7964 3.2086 5.1043 15.5531-24.5568c1.7737-2.8002 1.7943-6.4322.0522-9.2519l-7.5219-12.1776c-.6121-.9916-.305-2.2925.6872-2.9052.9926-.6127 2.2925-.3051 2.9052.6866l7.5213 12.1776c2.5849 4.185 2.5543 9.5738-.077 13.7297l-16.4286 25.939c-.066.1045-.142.1979-.2222.2866l2.9232 4.6531c1.2737-1.0062 2.1804-1.8512 2.7202-2.5349 6.1947-7.8462 12.6421-17.273 19.342-28.2804 2.2942-3.7693 2.3543-8.4397.0845-12.1977-8.635-14.2955-18.2282-29.4527-21.0896-30.8708Z"></path>
  <defs>
    <linearGradient id="a" x1="4782.04" x2="4063.43" y1="2506.44" y2="1310.92" gradientUnits="userSpaceOnUse">
      <stop stop-color="#520bf5"></stop>
      <stop offset="1" stop-color="#9d1fe0"></stop>
    </linearGradient>
    <linearGradient id="b" x1="4735.88" x2="3861.29" y1="1393.59" y2="2789.62" gradientUnits="userSpaceOnUse">
      <stop stop-color="#9e1fa7"></stop>
      <stop offset="1" stop-color="#e540ae"></stop>
    </linearGradient>
    <linearGradient id="c" x1="4751.51" x2="1457.78" y1="3705.32" y2="3705.32" gradientUnits="userSpaceOnUse">
      <stop stop-color="#4b6af2"></stop>
      <stop offset="1" stop-color="#4ca7eb"></stop>
    </linearGradient>
  </defs>
</svg>