<svg xmlns="http://www.w3.org/2000/svg" width="34" height="34" fill="none"><path fill="#E01E5A" d="M8.238 20.987a3.183 3.183 0 0 1-3.174 3.175 3.183 3.183 0 0 1-3.175-3.175 3.182 3.182 0 0 1 3.175-3.175h3.174v3.175zm1.599 0a3.182 3.182 0 0 1 3.175-3.175 3.182 3.182 0 0 1 3.174 3.175v7.95a3.182 3.182 0 0 1-3.174 3.174 3.182 3.182 0 0 1-3.175-3.175v-7.949z"/><path fill="#36C5F0" d="M13.012 8.239a3.182 3.182 0 0 1-3.175-3.175 3.182 3.182 0 0 1 3.175-3.175 3.183 3.183 0 0 1 3.174 3.175v3.175h-3.174zm0 1.599a3.182 3.182 0 0 1 3.175 3.175 3.182 3.182 0 0 1-3.175 3.175H5.064a3.182 3.182 0 0 1-3.175-3.175 3.182 3.182 0 0 1 3.175-3.175h7.948z"/><path fill="#2EB67D" d="M25.76 13.013a3.182 3.182 0 0 1 3.175-3.175 3.183 3.183 0 0 1 3.175 3.175 3.183 3.183 0 0 1-3.174 3.175H25.76v-3.175zm-1.598 0a3.182 3.182 0 0 1-3.175 3.175 3.182 3.182 0 0 1-3.174-3.175v-7.95a3.182 3.182 0 0 1 3.174-3.174 3.183 3.183 0 0 1 3.175 3.175v7.949z"/><path fill="#ECB22E" d="M20.987 25.762a3.182 3.182 0 0 1 3.175 3.174 3.182 3.182 0 0 1-3.175 3.175 3.182 3.182 0 0 1-3.174-3.174v-3.175h3.174zm0-1.6a3.183 3.183 0 0 1-3.174-3.175 3.182 3.182 0 0 1 3.174-3.175h7.95a3.182 3.182 0 0 1 3.174 3.175 3.182 3.182 0 0 1-3.175 3.175h-7.949z"/></svg>