<svg xmlns="http://www.w3.org/2000/svg" width="113" height="45" fill="none"><path fill="#666" d="M20.908 5.625c-8.94 0-16.19 7.248-16.19 16.19 0 8.94 7.25 16.19 16.19 16.19 8.941 0 16.19-7.249 16.19-16.19 0-8.943-7.248-16.19-16.19-16.19zm7.425 23.35a1.01 1.01 0 0 1-1.388.336c-3.802-2.324-8.587-2.849-14.222-1.561a1.009 1.009 0 1 1-.45-1.967c6.168-1.41 11.458-.803 15.725 1.804.476.292.627.913.334 1.388zm1.981-4.408a1.263 1.263 0 0 1-1.736.416c-4.35-2.675-10.985-3.45-16.132-1.887a1.264 1.264 0 0 1-1.575-.84 1.264 1.264 0 0 1 .841-1.575c5.88-1.784 13.19-.92 18.187 2.151.593.366.78 1.143.415 1.735zm.17-4.59c-5.218-3.1-13.826-3.384-18.808-1.872a1.514 1.514 0 0 1-.879-2.898c5.719-1.736 15.226-1.4 21.233 2.165a1.514 1.514 0 0 1-1.545 2.605zm18.281.594c-2.795-.667-3.293-1.135-3.293-2.118 0-.928.875-1.553 2.175-1.553 1.3 0 2.51.474 3.82 1.451.04.03.09.041.139.034a.18.18 0 0 0 .12-.075l1.366-1.924a.183.183 0 0 0-.035-.249c-1.56-1.251-3.316-1.86-5.369-1.86-3.018 0-5.126 1.812-5.126 4.403 0 2.78 1.819 3.763 4.961 4.523 2.675.616 3.127 1.132 3.127 2.055 0 1.022-.913 1.658-2.383 1.658-1.631 0-2.962-.55-4.45-1.839a.183.183 0 0 0-.26.02l-1.531 1.822a.182.182 0 0 0 .018.254c1.732 1.547 3.863 2.363 6.162 2.363 3.252 0 5.354-1.777 5.354-4.527.005-2.322-1.385-3.608-4.789-4.436l-.006-.002zm12.153-2.757c-1.41 0-2.566.555-3.52 1.693v-1.28a.183.183 0 0 0-.183-.184h-2.503a.183.183 0 0 0-.183.183v14.23c0 .1.082.183.183.183h2.503a.183.183 0 0 0 .183-.184v-4.491c.954 1.07 2.11 1.593 3.52 1.593 2.62 0 5.27-2.016 5.27-5.87.005-3.856-2.648-5.873-5.267-5.873h-.003zm2.36 5.872c0 1.963-1.209 3.333-2.94 3.333-1.731 0-3.003-1.432-3.003-3.333 0-1.9 1.291-3.332 3.003-3.332 1.703 0 2.94 1.4 2.94 3.332zm9.707-5.872c-3.373 0-6.016 2.598-6.016 5.914 0 3.317 2.625 5.851 5.975 5.851 3.35 0 6.036-2.589 6.036-5.893s-2.633-5.872-5.995-5.872zm0 9.224c-1.794 0-3.147-1.441-3.147-3.353 0-1.911 1.306-3.312 3.106-3.312 1.8 0 3.167 1.441 3.167 3.354s-1.314 3.311-3.126 3.311zm13.198-8.995H83.43v-2.816a.183.183 0 0 0-.183-.183h-2.502a.184.184 0 0 0-.184.183v2.816h-1.203a.183.183 0 0 0-.183.183v2.152c0 .1.082.183.183.183h1.203v5.566c0 2.25 1.12 3.39 3.328 3.39.897 0 1.642-.186 2.344-.584a.183.183 0 0 0 .093-.159v-2.048a.183.183 0 0 0-.266-.164 3.155 3.155 0 0 1-1.469.354c-.803 0-1.161-.364-1.161-1.181v-5.173h2.754a.183.183 0 0 0 .183-.184v-2.15a.178.178 0 0 0-.18-.184l-.003-.001zm9.597.01v-.345c0-1.017.39-1.471 1.265-1.471.522 0 .94.103 1.41.26a.183.183 0 0 0 .241-.174v-2.11a.183.183 0 0 0-.13-.175 6.874 6.874 0 0 0-2.08-.3c-2.312 0-3.534 1.303-3.534 3.764v.53H91.75a.184.184 0 0 0-.184.183v2.162c0 .101.083.184.184.184h1.202v8.585c0 .101.082.184.183.184h2.503a.184.184 0 0 0 .183-.184v-8.585h2.337l3.58 8.584c-.406.902-.806 1.081-1.352 1.081-.44 0-.905-.132-1.38-.392a.188.188 0 0 0-.145-.013.185.185 0 0 0-.109.099l-.848 1.86a.182.182 0 0 0 .079.237c.886.48 1.685.685 2.673.685 1.848 0 2.87-.861 3.77-3.177l4.343-11.22a.182.182 0 0 0-.02-.171.182.182 0 0 0-.15-.08h-2.606a.183.183 0 0 0-.173.123l-2.67 7.625-2.923-7.63a.183.183 0 0 0-.171-.118H95.78zm-5.564-.01h-2.503a.184.184 0 0 0-.183.183v10.92c0 .101.082.184.183.184h2.503c.1 0 .184-.082.184-.184V18.227a.183.183 0 0 0-.183-.183h-.001v-.001zm-1.237-4.972a1.795 1.795 0 1 0-.004 3.59 1.795 1.795 0 0 0 .005-3.59h-.001z"/></svg>