<svg xmlns="http://www.w3.org/2000/svg" width="113" height="45" fill="none"><path fill="#666" d="M15.693 32.232c9.391 0 14.527-7.778 14.527-14.523 0-.221-.005-.441-.014-.66a10.38 10.38 0 0 0 2.546-2.643c-.914.406-1.899.68-2.932.803a5.122 5.122 0 0 0 2.245-2.823 10.239 10.239 0 0 1-3.242 1.239 5.106 5.106 0 0 0-8.7 4.655 14.499 14.499 0 0 1-10.525-5.333 5.09 5.09 0 0 0-.691 2.565 5.1 5.1 0 0 0 2.272 4.25 5.07 5.07 0 0 1-2.313-.64v.066a5.106 5.106 0 0 0 4.096 5.004 5.107 5.107 0 0 1-2.306.087 5.11 5.11 0 0 0 4.77 3.545 10.244 10.244 0 0 1-6.341 2.185c-.412 0-.819-.023-1.219-.07a14.456 14.456 0 0 0 7.827 2.293M38.322 16.79h3.056v2.62H43.7v2.372h-2.322v4.495c0 .47.117.795.352.977.235.182.593.273 1.077.273.192 0 .375-.005.55-.015.175-.01.31-.018.402-.025v2.273a12.447 12.447 0 0 1-1.717.128c-.9 0-1.629-.1-2.188-.303-.559-.201-.966-.527-1.22-.977-.255-.45-.382-1.042-.382-1.776v-5.05h-1.617V19.41h1.687v-2.62zm19.914 13.059h-3.324l-1.816-7.164h-.099l-1.786 7.164h-3.354L45.11 19.252h3.264l1.33 7.491h.128l1.747-7.491h2.957l1.786 7.491h.13l1.349-7.491h3.145l-2.709 10.597zm4.892-14.785c.344-.291.8-.437 1.369-.437s1.017.146 1.364.437c.347.291.52.678.52 1.16 0 .484-.171.859-.515 1.147-.344.288-.8.432-1.369.432s-1.017-.144-1.364-.432c-.347-.287-.52-.67-.52-1.146 0-.476.171-.87.515-1.16zm-.208 4.188h3.165v10.597H62.92V19.252zm6.945-2.462h3.056v2.62h2.322v2.372h-2.322v4.495c0 .47.117.795.352.977.235.182.594.273 1.077.273.192 0 .375-.005.55-.015.176-.01.31-.018.402-.025v2.273a12.42 12.42 0 0 1-1.716.128c-.9 0-1.63-.1-2.189-.303-.559-.201-.966-.527-1.22-.977-.255-.45-.382-1.042-.382-1.776v-5.05h-1.617V19.41h1.687v-2.62zm8.613 0h3.056v2.62h2.323v2.372h-2.323v4.495c0 .47.118.795.352.977.235.182.594.273 1.077.273.192 0 .376-.005.55-.015.176-.01.31-.018.403-.025v2.273a12.368 12.368 0 0 1-1.717.128c-.9 0-1.629-.1-2.188-.303-.56-.201-.966-.527-1.22-.977-.256-.45-.382-1.042-.382-1.776v-5.05H76.79V19.41h1.687v-2.62zm9.62 12.696a4.038 4.038 0 0 1-1.766-1.677c-.42-.744-.63-1.665-.63-2.763v-1.012c0-1.105.22-2.026.66-2.764a4.206 4.206 0 0 1 1.77-1.657c.742-.367 1.562-.55 2.462-.55.959 0 1.802.198 2.53.595a4.232 4.232 0 0 1 1.707 1.711c.41.744.615 1.632.615 2.665v1.17h-6.668v.487c0 .608.183 1.096.55 1.463.367.367.832.55 1.394.55.318 0 .604-.047.858-.143a1.59 1.59 0 0 0 .62-.402 1.03 1.03 0 0 0 .278-.585h2.898c-.02.357-.121.737-.303 1.14a3.675 3.675 0 0 1-.828 1.137c-.37.355-.845.642-1.424.864-.579.221-1.275.332-2.089.332-1 0-1.877-.187-2.635-.56h.001zm4.322-6.057v-.07c0-.403-.075-.757-.224-1.061a1.72 1.72 0 0 0-.63-.715 1.742 1.742 0 0 0-.953-.258c-.363 0-.683.087-.957.258-.275.172-.49.41-.645.715a2.3 2.3 0 0 0-.233 1.061v.07h3.641zm5.437-4.177h3.165v1.677h.148c.067-.245.199-.508.397-.789.199-.281.473-.524.824-.73.35-.205.78-.307 1.29-.307.224 0 .413.006.565.02.152.014.281.036.387.07v2.688a2.302 2.302 0 0 0-.486-.094 6.163 6.163 0 0 0-.675-.035c-.542 0-.988.098-1.339.293a1.79 1.79 0 0 0-.774.823c-.166.355-.248.766-.248 1.236v5.745h-3.255V19.25z"/></svg>