<svg xmlns="http://www.w3.org/2000/svg" width="34" height="34" fill="none"><g fill="#E6E6E6" clip-path="url(#a)"><path d="M6.037 20.035c2.277 0 4.378-.194 6.426.053 2.224.265 3.337-.582 4.22-2.576 1.288-2.947 2.93-5.753 4.395-8.63.265-.547.565-.758 1.2-.758 2.843.035 5.703.017 8.722.017-.159.37-.265.653-.406.918-2.825 5.347-5.667 10.694-8.474 16.059-.353.67-.724.9-1.483.9A766.778 766.778 0 0 0 9.603 26c-.547 0-.848-.159-1.077-.67-.777-1.73-1.589-3.406-2.49-5.295z"/><path d="M3 8.124h6.426c.265 0 .53.035.795 0 2.507-.495 4.166.564 5.508 2.647.67 1.023.918 1.694.212 2.753-.706 1.076-1.183 2.294-1.819 3.423-.14.265-.565.53-.847.53a95.694 95.694 0 0 1-5.032 0c-.247 0-.6-.16-.706-.353-1.5-2.93-2.966-5.877-4.537-9z"/></g><defs><clipPath id="a"><path fill="#fff" d="M3 8h28v18H3z"/></clipPath></defs></svg>