<svg xmlns="http://www.w3.org/2000/svg" width="24" height="24" fill="none"><path fill="#E6E6E6" d="M10.184 14.073c-.614.665-1.206 1.304-1.798 1.947-1.652 1.797-3.305 3.593-4.953 5.393a.52.52 0 0 1-.435.187c-.442-.014-.885-.005-1.394-.005 2.648-2.87 5.248-5.69 7.857-8.515C6.843 9.527 4.239 5.992 1.6 2.413h.28c1.745 0 3.495.005 5.24-.004.188 0 .302.053.416.208 1.688 2.289 3.389 4.577 5.081 6.861.022.027.048.054.083.094.373-.4.732-.794 1.096-1.185 1.723-1.876 3.455-3.738 5.165-5.619.24-.262.469-.395.824-.364.355.031.71.01 1.127.01l-7.493 8.142c2.723 3.668 5.44 7.331 8.181 11.026-.1.004-.171.013-.241.013-1.806 0-3.608 0-5.414.005a.382.382 0 0 1-.347-.173c-1.753-2.39-3.511-4.777-5.27-7.163-.039-.058-.083-.111-.144-.19zM4.09 3.651c.066.088.092.133.123.173C5.397 5.416 6.58 7.008 7.768 8.6c2.859 3.841 5.717 7.678 8.571 11.518a.346.346 0 0 0 .311.155c.759-.004 1.522-.004 2.28-.004.061 0 .127-.009.215-.013-.044-.071-.07-.12-.105-.164-2.43-3.278-4.853-6.555-7.282-9.837C10.166 8.102 8.57 5.952 6.979 3.8a.335.335 0 0 0-.307-.155c-.635.005-1.271.005-1.907.005H4.09z"/></svg>