<svg xmlns="http://www.w3.org/2000/svg" width="113" height="45" fill="none"><path fill="#666" d="M39.6 15.851a3.656 3.656 0 0 0-2.578-2.577c-2.272-.607-11.385-.607-11.385-.607s-9.108 0-11.385.608a3.651 3.651 0 0 0-2.577 2.576c-.608 2.272-.608 7.015-.608 7.015s0 4.743.608 7.013a3.656 3.656 0 0 0 2.577 2.577c2.277.608 11.385.608 11.385.608s9.113 0 11.385-.608a3.656 3.656 0 0 0 2.577-2.577c.609-2.272.609-7.013.609-7.013s0-4.743-.609-7.013v-.002z"/><path fill="#101010" d="M22.725 18.494v8.744l7.571-4.372-7.57-4.372z"/><path fill="#666" d="M58.082 19.157c-.57-.39-1.326-.584-2.272-.584-.945 0-1.733.195-2.322.575-.588.38-1.023.987-1.303 1.822-.278.834-.418 1.938-.418 3.315v1.853c0 1.363.125 2.453.367 3.274.241.821.653 1.423 1.228 1.813.575.389 1.372.583 2.383.577.987 0 1.772-.194 2.346-.574.58-.38.998-.987 1.252-1.813.255-.826.384-1.919.384-3.283v-1.854c0-1.371-.13-2.475-.393-3.3-.265-.824-.682-1.432-1.252-1.821zm-1.247 8.026c0 .941-.083 1.62-.242 2.039-.16.416-.439.625-.848.625-.41 0-.681-.209-.835-.625-.152-.412-.226-1.093-.226-2.04V23.2c0-.918.083-1.59.241-2.011.163-.423.437-.636.826-.636.39 0 .686.213.844.636.163.427.242 1.094.242 2.011v3.983h-.002zm9.302 1.793a1.435 1.435 0 0 1-.51.584 1.272 1.272 0 0 1-.719.226c-.292 0-.5-.125-.625-.366-.125-.242-.185-.65-.185-1.22v-9.377h-2.874v9.54c0 1.183.199 2.05.603 2.605.403.556 1.03.834 1.878.834 1.22 0 2.137-.588 2.75-1.771h.06l.251 1.562h2.248v-12.77h-2.876v10.151l-.001.002zM49.649 14.107l-1.188 5.377c-.333 1.572-.547 2.69-.645 3.356h-.083a51.57 51.57 0 0 0-.645-3.375l-1.145-5.354h-2.856l3.274 11.817v5.669h2.832v-5.669l3.31-11.821h-2.856.002zm31.237 14.869a1.436 1.436 0 0 1-.509.584 1.272 1.272 0 0 1-.72.226c-.291 0-.5-.125-.624-.366-.125-.242-.186-.65-.186-1.22v-9.377h-2.874v9.54c0 1.183.2 2.05.604 2.605.403.556 1.03.834 1.878.834 1.22 0 2.136-.588 2.75-1.771h.06l.251 1.562h2.247v-12.77h-2.875v10.151l-.002.002zm16.732-2.809h4.815v-2.188c0-1.346-.111-2.403-.324-3.166-.217-.765-.588-1.326-1.117-1.688-.529-.362-1.285-.543-2.272-.543-1.432 0-2.444.441-3.032 1.322-.588.885-.885 2.28-.885 4.2v2.23c0 1.863.283 3.236.853 4.126.569.89 1.562 1.335 2.98 1.335 1.184 0 2.096-.292 2.741-.876.644-.584.968-1.464.968-2.647 0-.195-.006-.349-.02-.46l-2.48-.144c-.013.778-.102 1.335-.26 1.668-.156.333-.453.5-.885.5-.319 0-.556-.097-.71-.283-.152-.185-.255-.486-.3-.895-.051-.412-.075-1.024-.075-1.845v-.647l.003.001zm0-1.706v-.917c0-.83.024-1.457.074-1.864.05-.408.148-.704.292-.885.145-.181.371-.274.677-.27.307 0 .534.089.676.26.145.172.245.474.301.896.055.423.084 1.043.084 1.864v.917h-2.104v-.001zm-5.182-5.345c-.39-.362-.923-.543-1.605-.543-.529 0-1.02.148-1.48.449a3.01 3.01 0 0 0-1.06 1.178h-.025v-6.73h-2.772V31.6h2.374l.292-1.21h.06c.223.433.557.77 1.003 1.021a2.95 2.95 0 0 0 1.48.376c.972 0 1.687-.449 2.145-1.345.459-.895.686-2.294.686-4.2v-2.02c.003-1.428-.084-2.546-.256-3.352-.176-.806-.455-1.39-.844-1.751l.002-.002zm-1.91 9.151c-.075.53-.204.903-.385 1.127a.885.885 0 0 1-.728.333 1.275 1.275 0 0 1-1.15-.668v-7.254a1.82 1.82 0 0 1 .5-.854c.238-.222.492-.333.77-.333a.78.78 0 0 1 .677.343c.156.226.267.615.333 1.154.06.543.092 1.312.092 2.313v1.65h.005c0 .935-.037 1.661-.116 2.19h.002z"/><path fill="#666" d="M76.824 14.113h-8.522v2.313h2.856v15.17h2.815v-15.17h2.85v-2.313z"/></svg>