<svg xmlns="http://www.w3.org/2000/svg" width="34" height="34" fill="none"><g clip-path="url(#a)"><path fill="#E6E6E6" d="M33 26.961c-3.227 0-6.273.02-9.338-.039-.323 0-.767-.37-.948-.683-2.36-4.098-4.68-8.234-7.02-12.37-.2-.371-.423-.723-.725-1.25-.847 1.503-1.614 2.85-2.38 4.196-.04.058-.04.136-.08.175-1.735 1.932-1.372 3.805.08 5.737.746.995 1.25 2.146 1.855 3.239.142.273.263.566.464.995H12.77c-1.956 0-3.892-.039-5.849.02-.867.039-1.33-.274-1.694-1.015-.988-1.873-2.077-3.707-3.066-5.6-.16-.312-.221-.84-.06-1.132 1.069-2.03 2.239-4.039 3.348-6.088.262-.507.605-.683 1.19-.663 2.36.039 4.7.02 7.06.02h1.21c-1.05-1.874-2.018-3.59-3.046-5.444 2.46 0 4.74.117 7.019-.04 1.714-.117 2.581.469 3.408 1.913 3.348 5.775 6.858 11.473 10.307 17.19.1.215.201.449.403.839z"/></g><defs><clipPath id="a"><path fill="#fff" d="M2 7h31v20H2z"/></clipPath></defs></svg>