<svg xmlns="http://www.w3.org/2000/svg" width="113" height="45" fill="none"><path fill="#666" d="M108.308 17.663V28.55h-3.632v-1.98c-.307.746-.773 1.314-1.4 1.702-.626.386-1.401.581-2.32.581-.821 0-1.537-.203-2.15-.61a4.04 4.04 0 0 1-1.416-1.68c-.33-.71-.497-1.513-.497-2.413-.011-.926.165-1.758.526-2.494.36-.736.871-1.31 1.527-1.724.657-.412 1.407-.62 2.247-.62 1.73 0 2.891.767 3.484 2.3v-3.947h3.631zm-4.174 7.81c.371-.367.554-.845.554-1.427 0-.583-.179-1.024-.539-1.377-.36-.351-.854-.529-1.473-.529-.62 0-1.102.18-1.468.539-.366.358-.548.822-.548 1.397 0 .575.182 1.044.548 1.406.366.364.85.544 1.453.544.611-.001 1.103-.186 1.473-.552zm-7.891-5.603v3.266c-.378-.253-.865-.378-1.468-.378-.79 0-1.399.244-1.823.733-.425.488-.636 1.248-.636 2.276v2.782h-3.632v-8.845h3.557v2.812c.197-1.028.517-1.786.958-2.276.437-.488 1.004-.732 1.695-.732.524 0 .972.12 1.349.362zm-17.586 8.346c-.855-.422-1.507-1.001-1.957-1.738a4.648 4.648 0 0 1-.674-2.465c0-.908.223-1.716.674-2.427.451-.711 1.099-1.269 1.951-1.673.848-.404 1.862-.604 3.038-.604 1.176 0 2.189.2 3.039.604.85.404 1.497.958 1.941 1.664.446.706.668 1.516.668 2.435 0 .918-.222 1.727-.668 2.464-.444.736-1.094 1.315-1.95 1.74-.856.422-1.866.633-3.031.633-1.166 0-2.178-.209-3.031-.633zm4.504-2.682c.36-.367.542-.853.542-1.458s-.18-1.087-.542-1.444c-.36-.358-.852-.537-1.473-.537-.622 0-1.13.18-1.49.538-.361.358-.54.838-.54 1.443 0 .605.178 1.09.54 1.458.359.367.856.552 1.49.552.621-.001 1.113-.185 1.473-.552zm-15.036 2.683c-.85-.423-1.49-.998-1.919-1.724-.428-.726-.643-1.543-.643-2.45 0-.905.222-1.719.666-2.433.446-.715 1.097-1.278 1.958-1.686.86-.408 1.886-.611 3.082-.611 1.483 0 2.713.317 3.69.953v2.767a4.565 4.565 0 0 0-1.206-.59 4.692 4.692 0 0 0-1.476-.228c-.92 0-1.637.171-2.155.515-.52.343-.78.79-.78 1.346s.252.988.757 1.338c.503.349 1.233.524 2.193.524.493 0 .98-.074 1.46-.218a5.447 5.447 0 0 0 1.237-.539v2.677c-1.085.665-2.345.998-3.78.998-1.206-.004-2.234-.216-3.084-.64zm-10.494.317a7.74 7.74 0 0 1-2.165-.922v-2.51c.486.382 1.135.697 1.951.945.815.247 1.602.37 2.365.37.356 0 .624-.048.806-.142.183-.096.275-.21.275-.342 0-.15-.05-.276-.15-.378-.1-.102-.292-.185-.577-.257l-1.779-.408c-1.017-.242-1.74-.578-2.17-1.007-.43-.428-.644-.99-.644-1.684 0-.586.186-1.093.563-1.528.376-.434.909-.769 1.601-1.005.694-.237 1.501-.355 2.432-.355.83 0 1.59.09 2.282.272.692.182 1.264.412 1.72.695v2.375a6.28 6.28 0 0 0-1.61-.675 7.042 7.042 0 0 0-1.877-.247c-.929 0-1.392.161-1.392.483 0 .15.071.264.215.34.145.075.408.153.792.235l1.483.272c.968.17 1.69.47 2.163.898.475.429.712 1.061.712 1.899 0 .918-.391 1.646-1.177 2.186s-1.9.81-3.344.81a9.709 9.709 0 0 1-2.474-.32zm-7.407-6.745c1.11.487 2.486.509 3.62 0v6.807h-3.62V21.79zm1.813-1.143c.999 0 1.81-.744 1.81-1.66 0-.915-.812-1.658-1.81-1.658-.999 0-1.811.743-1.811 1.659s.81 1.659 1.81 1.659zm-15.26-2.681h5.78c1.393 0 2.57.222 3.535.665.964.443 1.686 1.061 2.165 1.852.478.79.72 1.696.72 2.715 0 1.02-.251 1.902-.75 2.713-.5.812-1.26 1.453-2.282 1.927-1.023.472-2.29.71-3.803.71h-5.366V17.966zm5.306 7.892c.937 0 1.66-.24 2.163-.716.504-.48.755-1.132.755-1.96 0-.766-.224-1.378-.673-1.835-.448-.458-1.128-.69-2.037-.69h-1.808v5.202h1.6zM31.026 29.98c-2.332 1.742-4.593 2.798-6.817 3.488a16.71 16.71 0 0 1-1.459-2.399 14.25 14.25 0 0 0 2.302-1.119c-.19-.142-.379-.292-.563-.444-4.377 2.068-9.19 2.068-13.62 0-.183.153-.371.302-.563.444.727.437 1.496.812 2.298 1.117a16.914 16.914 0 0 1-1.46 2.4c-2.221-.692-4.48-1.748-6.81-3.487-.477-5.098.476-10.271 3.99-15.577a21.894 21.894 0 0 1 5.56-1.747c.24.431.526 1.013.719 1.475a20.412 20.412 0 0 1 6.156 0c.192-.462.472-1.044.71-1.475 1.949.337 3.813.928 5.555 1.742 3.046 4.546 4.561 9.672 4.003 15.582h-.001zm-15.4-5.885c.025-1.512-1.066-2.752-2.42-2.752-1.352 0-2.42 1.24-2.42 2.752 0 1.51 1.09 2.75 2.42 2.75 1.331 0 2.423-1.24 2.42-2.75zm8.945 0c.024-1.512-1.067-2.752-2.42-2.752s-2.42 1.24-2.42 2.752c0 1.51 1.09 2.75 2.42 2.75 1.33 0 2.42-1.24 2.42-2.75z"/></svg>