<svg xmlns="http://www.w3.org/2000/svg" width="113" height="45" fill="none"><path fill="#666" d="M30.675 18.944c1.047 0 2.05-.86 2.225-1.923.207-1.034-.503-1.894-1.548-1.894-1.046 0-2.05.86-2.228 1.894-.204 1.062.476 1.923 1.551 1.923zm71.009 3.072h2.34c.321 0 .509-.128.581-.424.112-.458.227-.916.346-1.372.069-.267-.088-.468-.387-.468h-2.31c.167-.655.815-2.778.815-4.163 0-2.764-2.376-5.117-5.748-5.117-3.807 0-6.284 2.525-6.284 6.078 0 1.037.391 2.244.876 2.994a11.013 11.013 0 0 0-.627-.018c-2.893 0-4.715 1.551-4.715 3.808 0 2.118 1.69 2.94 3.28 3.488 1.413.487 2.714.713 2.714 1.804 0 .736-.716 1.167-2.117 1.167-1.662 0-2.576-.773-2.808-1.067.157-.122.391-.413.391-.898 0-.679-.482-1.233-1.378-1.233-.758 0-1.398.611-1.56 1.415-1.217.984-2.546 1.622-4.43 1.622s-2.819-.954-2.819-2.983c.435.13 1.568.288 2.317.288 3.142 0 5.283-1.41 5.283-4.236 0-1.519-1.35-3.114-4.02-3.114h-.006c-3.511 0-5.478 2.198-6.337 4.616-.24-.058-.482-.113-.723-.167.192-.537.33-1.158.33-1.847 0-1.194-.749-2.602-2.75-2.602-1.396 0-2.719.903-3.636 2.256l.39-1.51c.06-.23-.038-.488-.403-.488h-2.055c-.293 0-.5.102-.583.432l-1.45 5.623c-.432 1.663-2.672 3.732-5.488 3.732-1.856 0-2.818-1.017-2.818-3.047.486.191 1.568.351 2.316.351 3.27 0 5.283-1.41 5.283-4.235 0-1.52-1.35-3.115-4.02-3.115h-.005c-3.955 0-6.377 3.035-6.788 6.477-.17 1.43-1.392 3.394-2.716 3.394-.646 0-1.006-.4-1.006-1.08 0-.587.419-2.023.877-3.823l.646-2.538h2.15c.32 0 .507-.128.58-.424.103-.426.292-1.17.345-1.372.07-.267-.087-.468-.386-.468h-2.114s.973-3.838.996-3.936c.094-.39-.237-.616-.582-.544 0 0-1.634.316-1.938.378-.304.061-.54.227-.65.66l-.866 3.441h-1.698c-.32 0-.508.13-.58.424-.112.459-.227.916-.345 1.373-.07.266.087.468.386.468h1.665c-.012.047-.602 2.263-1.078 4.247-.224.954-.976 3.186-2.207 3.186-.736 0-1.046-.366-1.046-1.152 0-1.238 1.233-4.337 1.233-5.743 0-1.878-1.02-2.966-3.11-2.966-1.316 0-2.681.84-3.26 1.577 0 0 .175-.604.235-.835.064-.246-.069-.486-.394-.486h-2.043c-.435 0-.555.23-.619.482l-1.468 5.699c-.483 1.877-1.657 3.446-2.913 3.446-.645 0-.933-.4-.933-1.08 0-.588.384-2.038.842-3.837.558-2.19 1.05-3.994 1.102-4.205.07-.27-.053-.506-.405-.506h-2.055c-.372 0-.505.194-.584.462 0 0-.578 2.163-1.19 4.572-.445 1.747-.937 3.528-.937 4.364 0 1.493.678 2.618 2.543 2.618 1.44 0 2.579-.721 3.448-1.64l-.217.844c-.075.284.016.536.354.536h2.103c.366 0 .507-.146.584-.461.073-.301 1.644-6.406 1.644-6.406.415-1.64 1.442-2.725 2.886-2.725.685 0 1.278.448 1.21 1.319-.077.958-1.247 4.4-1.247 5.911 0 1.144.43 2.623 2.608 2.623 1.485 0 2.578-.703 3.373-1.611.291.963 1.062 1.61 2.476 1.61 2.35 0 3.768-1.377 4.6-2.76.69 1.607 2.309 2.76 4.68 2.76a7.72 7.72 0 0 0 5.616-2.376l-.414 1.603c-.075.288.053.515.395.515h2.081c.285 0 .489-.143.562-.439.037-.145.338-1.293.762-2.925.813-3.123 2.118-6.363 4.08-6.363.692 0 .975.383.975.985 0 .283-.083.529-.155.66-.951-.186-1.716.278-1.716 1.28 0 .655.696 1.249 1.635 1.249.718 0 1.312-.174 1.785-.49.466.096.93.196 1.395.3-.072.453-.108.91-.11 1.37 0 2.505 1.811 4.63 5.058 4.63 2.544 0 4.29-.919 5.796-2.098.724 1.171 2.553 2.118 4.953 2.118 3.289 0 5.154-1.69 5.154-3.924 0-2.021-1.68-2.765-3.411-3.385-1.408-.502-2.583-.775-2.583-1.759 0-.806.642-1.174 1.743-1.174.714 0 1.25.151 1.536.23.284.703.871 1.48 1.874 1.48.849 0 1.23-.663 1.23-1.274 0-1.738-2.931-1.92-2.931-5.65 0-2.318 1.328-4.23 4.077-4.23 1.91 0 3.158 1.197 3.158 3.13 0 1.592-.977 4.428-.977 4.428h-1.662c-.32 0-.508.13-.58.425-.113.458-.228.915-.346 1.372-.07.266.086.468.386.468h1.623S96.97 28.13 96.97 29.24c0 1.493.851 2.618 2.717 2.618 2.639 0 4.288-1.694 5.005-4.158.055-.191-.054-.346-.249-.346h-1.007c-.201 0-.317.113-.368.308-.228.874-.791 1.794-1.901 1.794-.646 0-1.005-.4-1.005-1.08 0-.587.393-1.963.877-3.823.231-.885.642-2.538.642-2.538l.002.001zm-20.806-.104c.933 0 1.376.613 1.376 1.344 0 1.236-.97 1.99-2.488 1.99a6.55 6.55 0 0 1-1.751-.274c.188-1.137 1.021-3.06 2.863-3.06zm-21.95 0c1.022 0 1.376.613 1.376 1.344 0 1.236-.97 1.99-2.487 1.99a6.544 6.544 0 0 1-1.751-.274c.187-1.137.926-3.06 2.862-3.06zm-40.38-11.466c-6.658 0-10.015 4.717-10.015 8.65 0 2.382.913 4.501 2.87 5.29.32.13.608.005.701-.346.065-.243.218-.856.287-1.111.094-.347.057-.47-.202-.772-.564-.658-.925-1.51-.925-2.716 0-3.5 2.65-6.632 6.9-6.632 3.763 0 5.83 2.272 5.83 5.307 0 3.993-1.787 7.363-4.442 7.363-1.466 0-2.563-1.199-2.212-2.668.421-1.755 1.238-3.648 1.238-4.914 0-1.133-.616-2.079-1.89-2.079-1.5 0-2.703 1.532-2.703 3.585 0 1.307.447 2.19.447 2.19l-1.803 7.546c-.535 2.24-.08 4.985-.042 5.263.023.164.237.203.334.079.138-.178 1.922-2.356 2.53-4.532.171-.616.985-3.806.985-3.806.487.918 1.91 1.726 3.424 1.726 4.504 0 7.56-4.058 7.56-9.49 0-4.108-3.52-7.933-8.871-7.933z"/></svg>