<svg xmlns="http://www.w3.org/2000/svg" width="34" height="34" fill="none"><g fill="#E6E6E6" clip-path="url(#a)"><path d="M23.15 4.107V9.86c-.374.02-.748.042-1.102.042h-10.2c-.52 0-1.04-.106-1.04.767.02 4.156 0 8.312 0 12.468v1.023h3.455v5.86h-9.2C5.042 29.637 5 29.253 5 28.87c0-5.968-.02-11.935.042-17.902 0-.597.312-1.3.707-1.748 1.457-1.62 2.998-3.154 4.538-4.688.27-.277.708-.512 1.062-.512C15.137 3.98 18.925 4 22.714 4c.125 0 .25.064.437.107z"/><path d="M14.388 24.14c1.02-1.983 1.915-3.815 2.893-5.584.125-.235.666-.32 1-.32 1.581-.043 3.184-.021 4.953-.021v-8.184H29c0 2.664.02 5.307-.02 7.97 0 .235-.25.49-.417.683a523.421 523.421 0 0 1-4.788 4.88c-.229.234-.562.533-.832.554-2.79.043-5.558.021-8.555.021z"/></g><defs><clipPath id="a"><path fill="#fff" d="M5 4h24v26H5z"/></clipPath></defs></svg>