<svg xmlns="http://www.w3.org/2000/svg" width="113" height="45" fill="none"><path fill="#666" d="M12.582 33.711c2.108 0 3.685-1.557 3.685-1.557a5.41 5.41 0 0 1 .295-.227c1.262-.831 3.308-.232 3.308-.232.743.176.764-.387.764-.387l.058-.638c.054-.626 1.013-.619 1.013-.619 1.262-.05 1.794-.568 2.013-.934.235-.35-.209-.45-.209-.45-3.047-.853-4.524-3.753-4.524-3.753-.688-1.212.255-1.702.255-1.702.255-.18 1.503-.593 1.503-.593 1.03-.414.688-1.134.688-1.134-.382-.774-1.274-.258-1.274-.258-.422.225-.739.206-.739.206-.705.013-.79-.138-.79-.138l.025-3.356c0-3.069-2.699-5.556-6.028-5.556h-.057c-3.33 0-6.028 2.488-6.028 5.556l.024 3.356s-.084.151-.789.138c0 0-.317.019-.739-.206 0 0-.892-.516-1.274.258 0 0-.343.72.688 1.134 0 0 1.249.413 1.503.593 0 0 .944.49.256 1.702 0 0-1.478 2.9-4.525 3.753 0 0-.444.1-.209.45.22.366.75.885 2.013.934 0 0 .958-.007 1.013.62l.057.637s.022.563.765.387c0 0 2.045-.6 3.307.232 0 0 .158.11.296.227 0 0 1.578 1.557 3.685 1.557h-.028zM30.328 25c.826.415 2.686 1.046 3.994 1.046 1.41 0 2.154-.573 2.154-1.442 0-.87-.643-1.304-2.274-1.877-2.254-.77-3.724-1.996-3.724-3.932 0-2.272 1.932-4.01 5.133-4.01 1.53 0 2.657.316 3.462.671l.025 2.664c-.543-.257-2.219-.866-3.547-.866-1.328 0-1.972.593-1.972 1.284 0 .85.765 1.225 2.516 1.877 2.395.87 3.523 2.094 3.523 3.971 0 2.233-1.752 4.15-5.475 4.15-1.55 0-3.08-.416-3.845-.83L30.329 25zm35.62-6.19v1.498c.568-1.055 1.388-1.667 3.157-1.667 2.107 0 3.765 1.635 3.765 4.718 0 3.516-2.097 5.175-4.245 5.175-1.162 0-2.068-.474-2.5-1.106l-.219-.283v5.445h-2.815V18.83l2.858-.02zm-.053 5.428c0 .247.02.473.062.656.204.842.92 1.477 1.82 1.477 1.35 0 2.148-1.128 2.148-2.83 0-1.6-.716-2.81-2.107-2.81-.88 0-1.657.656-1.86 1.58a2.354 2.354 0 0 0-.063.553v1.374zm16.123 3.858c-.532.237-1.537.454-2.679.454-3.112 0-5.102-1.843-5.102-4.886 0-2.825 1.93-5.018 5.516-5.018.788 0 1.654.139 2.285.376l-.016 2.3c-.568-.337-1.343-.483-2.131-.483-1.782 0-2.749 1.126-2.728 2.707 0 1.778.988 2.707 2.787 2.707.709 0 1.599-.343 2.051-.541l.017 2.384zm7.566-9.454c2.386 0 3.394 1.114 3.368 4.025v5.65h-2.927v-5.314c0-1.264-.5-2.134-1.624-2.134-.787 0-1.353.514-1.57 1.047-.079.198-.098.455-.098.672v5.73h-2.807V14.29h2.833v5.941c.913-1.686 2.824-1.59 2.824-1.59zm19.362-2.612v2.823h2.148v2.175h-2.148v3.55c0 1.262.21 1.7 1.182 1.7.414 0 .591-.02.886-.08l.02 2.06c-.394.159-1.103.277-1.95.277-.965 0-1.684-.355-2.157-.85-.551-.572-.827-1.5-.827-2.864V21.03h-1.457v-2.175h1.457V16.84l2.846-.811zm-61.782 2.41c-1.41 0-2.352.694-2.842 1.277V18.62h-2.969v2.468c-.004.211-.006.427-.006.651v6.58h.006v.009l.005-.01h3.048v-5.57c0-.277.041-.554.121-.752.201-.553.705-1.126 1.55-1.126 1.107 0 1.55.85 1.55 2.095v5.353h3.06V22.59c0-2.845-1.202-4.149-3.523-4.149zm13.547 9.888v-5.72c0-2.271-1.009-4.168-4.22-4.168-1.574 0-2.795.382-3.513.732v2.298c.652-.39 2.021-.873 2.981-.873 1.478 0 1.793 1.01 1.793 1.523v.138c-3.407-.02-5.693.805-5.693 3.314 0 1.54 1.163 2.963 3.113 2.963 1.142 0 2.127-.415 2.757-1.185h.06l-.022.968h2.23l.514.01zm-2.993-3.415c0 .177-.02.353-.06.51-.203.608-.832 1.098-1.602 1.098-.689 0-1.216-.372-1.216-1.137 0-1.157 1.257-1.53 2.878-1.51v1.039zm45.472 3.415v-5.72c0-2.271-1.009-4.168-4.219-4.168-1.575 0-2.796.382-3.514.732v2.298c.652-.39 2.021-.873 2.982-.873 1.477 0 1.792 1.01 1.792 1.523v.138c-3.407-.02-5.692.805-5.692 3.314 0 1.54 1.162 2.963 3.112 2.963 1.142 0 2.127-.415 2.757-1.185h.059l-.021.968h2.229l.515.01zm-2.993-3.415c0 .177-.021.353-.061.51-.202.608-.83 1.098-1.601 1.098-.689 0-1.215-.372-1.215-1.137 0-1.157 1.256-1.53 2.877-1.51v1.039z"/></svg>