<svg xmlns="http://www.w3.org/2000/svg" width="113" height="45" fill="none"><path fill="#666" d="M26.04 18.595a10.97 10.97 0 0 0 6.41 2.058v-4.615c-.45 0-.903-.048-1.347-.142v3.633a10.97 10.97 0 0 1-6.41-2.058v9.418c0 4.711-3.809 8.53-8.504 8.53a8.45 8.45 0 0 1-4.734-1.441 8.465 8.465 0 0 0 6.081 2.566c4.698 0 8.506-3.82 8.506-8.53v-9.419h-.002zm1.662-4.655a6.44 6.44 0 0 1-1.662-3.767V9.58h-1.277a6.46 6.46 0 0 0 2.937 4.36h.002zM14.423 30.361A3.888 3.888 0 0 1 13.63 28a3.896 3.896 0 0 1 5.07-3.718v-4.719a8.553 8.553 0 0 0-1.346-.078v3.672a3.896 3.896 0 0 0-5.071 3.718c0 1.525.87 2.843 2.14 3.487z"/><path fill="#666" d="M24.692 17.472a10.97 10.97 0 0 0 6.411 2.058v-3.632A6.428 6.428 0 0 1 27.7 13.94a6.461 6.461 0 0 1-2.936-4.36H21.41v18.435a3.895 3.895 0 0 1-3.89 3.89 3.882 3.882 0 0 1-3.096-1.54 3.904 3.904 0 0 1-2.14-3.486 3.896 3.896 0 0 1 5.07-3.718v-3.673c-4.613.096-8.324 3.878-8.324 8.53 0 2.322.925 4.425 2.425 5.963a8.453 8.453 0 0 0 4.734 1.443c4.697 0 8.503-3.82 8.503-8.531v-9.421z"/><path fill="#666" d="M31.103 15.896v-.983a6.413 6.413 0 0 1-3.404-.976 6.429 6.429 0 0 0 3.404 1.96zm-6.34-6.318a7.09 7.09 0 0 1-.07-.53v-.592h-4.628V26.89a3.897 3.897 0 0 1-3.89 3.888 3.846 3.846 0 0 1-1.75-.417 3.882 3.882 0 0 0 3.098 1.54 3.897 3.897 0 0 0 3.89-3.889V9.579h3.352-.002zm-7.408 9.907v-1.047a8.49 8.49 0 0 0-1.167-.08c-4.697 0-8.505 3.82-8.505 8.53a8.533 8.533 0 0 0 3.77 7.09 8.517 8.517 0 0 1-2.425-5.965c0-4.651 3.71-8.433 8.325-8.529h.002zM84.729 31.56c3.36 0 6.085-2.712 6.085-6.058 0-3.345-2.725-6.058-6.085-6.058h-.917c3.36 0 6.085 2.713 6.085 6.058 0 3.346-2.725 6.058-6.085 6.058h.917zm-1.001-12.118h-.917c-3.36 0-6.085 2.713-6.085 6.058 0 3.346 2.725 6.058 6.085 6.058h.917c-3.362 0-6.085-2.712-6.085-6.058 0-3.345 2.725-6.058 6.085-6.058zm-46.263-2.737v3.07h3.582v11.7h3.585V19.859h2.918l1-3.155H37.466v.002zm29.341 0v3.07h3.583v11.7h3.585V19.859h2.918l1-3.155H66.806v.002zm-17.588 1.743c0-.962.783-1.743 1.75-1.743.965 0 1.75.78 1.75 1.743 0 .962-.783 1.742-1.75 1.742s-1.75-.78-1.75-1.742zm0 2.988h3.499v10.042h-3.5V21.436zm5-4.73v14.772h3.501V27.66l1.085-.997 3.417 4.897h3.75l-4.918-7.137 4.417-4.315h-4.252l-3.5 3.485v-6.888h-3.501.002zm37.762 0v14.772h3.501V27.66l1.082-.997 3.42 4.897h3.75l-4.919-7.137 4.418-4.315H98.98l-3.501 3.485v-6.888h-3.5.001z"/><path fill="#666" d="M83.812 31.56c3.36 0 6.085-2.712 6.085-6.058 0-3.345-2.725-6.058-6.085-6.058h-.084c-3.36 0-6.085 2.713-6.085 6.058 0 3.346 2.725 6.058 6.085 6.058h.084zm-3.002-6.058a2.953 2.953 0 0 1 2.96-2.946 2.953 2.953 0 0 1 2.96 2.946 2.952 2.952 0 0 1-2.96 2.946 2.953 2.953 0 0 1-2.96-2.946z"/></svg>